<?xml version="1.0" standalone="no"?>
<!DOCTYPE svg PUBLIC "-//W3C//DTD SVG 20010904//EN"
 "http://www.w3.org/TR/2001/REC-SVG-20010904/DTD/svg10.dtd">
<svg version="1.0" xmlns="http://www.w3.org/2000/svg"
 width="256.000000pt" height="256.000000pt" viewBox="0 0 256.000000 256.000000"
 preserveAspectRatio="xMidYMid meet">
<metadata>
Created by potrace 1.16, written by Peter Selinger 2001-2019
</metadata>
<g transform="translate(0.000000,256.000000) scale(0.100000,-0.100000)"
fill="#000000" stroke="none">
<path d="M780 1960 c0 -6 21 -43 48 -81 l47 -69 219 0 c215 0 220 0 262 -25
46 -27 84 -90 84 -141 -1 -69 -31 -105 -198 -238 -89 -71 -170 -142 -181 -160
-10 -17 -21 -49 -23 -71 l-3 -40 283 -3 282 -2 0 75 0 74 -136 3 -135 3 71 54
c96 73 136 116 167 179 22 44 26 67 25 132 0 99 -31 170 -103 234 -83 75 -104
79 -426 84 -212 3 -283 1 -283 -8z"/>
<path d="M780 1460 c0 -190 3 -236 16 -261 18 -35 82 -68 132 -69 l32 0 0 200
0 200 143 0 144 0 41 38 c47 43 53 71 22 102 -19 19 -33 20 -275 20 l-255 0 0
-230z"/>
<path d="M1672 1378 c3 -40 5 -43 36 -46 29 -3 32 -6 32 -38 l0 -34 -60 0 -60
0 0 -65 0 -66 63 3 62 3 3 57 3 57 37 3 c40 3 49 19 38 64 -5 20 -13 24 -44
24 -36 0 -37 1 -37 37 0 37 -1 38 -38 41 l-38 3 3 -43z"/>
<path d="M337 1003 c-4 -3 -7 -69 -7 -145 l0 -138 30 0 30 0 0 114 0 114 26 5
c14 2 54 2 90 -1 68 -5 83 -19 69 -62 -6 -18 -15 -20 -86 -20 l-80 0 3 -27 c2
-23 9 -29 33 -31 19 -2 47 -19 75 -46 43 -42 112 -67 124 -47 3 4 -13 25 -34
46 -43 42 -49 55 -25 55 31 0 55 38 55 86 0 58 -12 79 -51 93 -34 12 -241 15
-252 4z"/>
<path d="M943 993 c-3 -7 -3 -20 1 -28 4 -12 26 -15 111 -15 87 0 107 -3 112
-16 10 -26 -17 -40 -111 -60 -109 -22 -126 -36 -126 -104 l0 -50 148 0 148 0
2 25 2 25 -121 0 c-109 0 -120 2 -117 17 2 13 27 23 103 40 129 28 152 52 124
131 -7 21 -20 34 -42 41 -45 15 -228 10 -234 -6z"/>
<path d="M1827 1003 c-4 -3 -7 -69 -7 -145 l0 -138 89 0 c85 0 91 1 110 26 31
39 29 117 -4 149 -20 21 -34 25 -80 25 -54 0 -55 0 -55 29 0 16 -3 36 -6 45
-6 16 -35 22 -47 9z"/>
<path d="M688 924 c-5 -4 -8 -15 -8 -25 0 -16 11 -19 77 -21 50 -2 78 -7 81
-15 3 -10 -15 -13 -65 -13 -40 0 -76 -5 -86 -12 -26 -20 -32 -70 -10 -95 18
-23 46 -26 176 -24 l47 1 0 83 c0 115 -5 121 -117 125 -48 2 -91 0 -95 -4z"/>
<path d="M1288 922 c-16 -3 -18 -18 -18 -148 l0 -144 25 0 c23 0 25 4 25 45
l0 45 58 0 c35 0 66 6 79 15 42 30 42 142 0 169 -21 14 -134 26 -169 18z"/>
<path d="M1600 900 c0 -18 30 -34 56 -29 5 1 26 1 47 0 62 -2 42 -21 -22 -21
-53 0 -62 -3 -81 -27 -15 -19 -19 -35 -15 -53 12 -46 22 -50 122 -50 l95 0 -3
83 c-5 112 -10 117 -115 117 -77 0 -84 -2 -84 -20z"/>
<path d="M2078 909 c-23 -13 -24 -72 -2 -90 8 -7 40 -16 71 -20 60 -8 68 -12
58 -29 -4 -7 -31 -11 -64 -10 -80 2 -81 2 -81 -20 0 -23 0 -23 100 -20 85 2
103 13 103 61 0 41 -20 56 -94 64 -32 4 -59 11 -59 16 0 5 6 9 13 10 6 0 37 1
67 2 49 2 55 5 58 25 3 21 1 22 -75 22 -43 0 -86 -5 -95 -11z"/>
</g>
</svg>
