<svg xmlns="http://www.w3.org/2000/svg" width="1254" height="1254" viewBox="0 0 1254 1254" version="1.1"> <path d="M 385 295.547 C 385 295.848, 393.201 307.885, 403.224 322.297 C 413.247 336.709, 423.709 351.814, 426.474 355.865 L 431.500 363.231 531.500 362.874 C 624.737 362.542, 632.026 362.639, 639.283 364.306 C 655.447 368.020, 668.970 375.308, 681.350 386.975 C 692.785 397.752, 699.360 408.232, 704.581 424 C 707.185 431.865, 707.398 433.695, 707.435 448.500 C 707.480 466.325, 706.415 471.881, 700.503 484.692 C 692.626 501.759, 686.020 509.064, 659.822 529.676 C 627.473 555.127, 624.136 557.765, 605.016 573 C 595.007 580.975, 584.219 589.525, 581.043 592 C 533.356 629.156, 532.119 630.279, 524.220 643.578 C 516.411 656.723, 511.015 675.988, 511.004 690.754 L 511 696.007 646.250 695.754 L 781.500 695.500 781.780 666 C 781.934 649.775, 781.813 635.487, 781.511 634.250 L 780.962 632 708.981 632 C 669.391 632, 637.018 631.663, 637.039 631.250 C 637.061 630.837, 648.608 621.500, 662.700 610.500 C 725.503 561.474, 730.643 557.247, 738.970 547.780 C 757.286 526.954, 768.414 505.503, 774.649 479 C 777.966 464.903, 778.930 438.276, 776.659 423.500 C 773.302 401.656, 764.372 378.737, 751.876 359.895 C 744.180 348.290, 724.785 328.701, 713.500 321.135 C 701.905 313.361, 683.129 304.568, 670.692 301.089 C 648.489 294.877, 651.698 295, 512.122 295 C 442.205 295, 385 295.246, 385 295.547 M 385.015 537.250 C 385.031 654.096, 384.760 649.042, 391.715 662.277 C 402.725 683.229, 427.854 696, 458.072 696 L 465 696 465 598.500 L 465 501 532.875 501 C 570.206 501, 602.116 500.727, 603.786 500.393 C 607.270 499.696, 637.222 475.980, 640.808 471.079 C 644.102 466.576, 646.001 460.546, 645.991 454.624 C 645.980 448.592, 641.861 440.461, 637.098 437.069 C 629.689 431.794, 635.042 432, 505.374 432 L 385 432 385.015 537.250 M 822.750 565.055 C 821.219 565.969, 821 567.819, 821 579.850 C 821 589.211, 821.383 593.983, 822.200 594.800 C 823.008 595.608, 827.570 596, 836.165 596 C 847.762 596, 849.024 595.823, 849.965 594.066 C 850.534 593.002, 851 586.547, 851 579.721 C 851 569.130, 850.743 567.093, 849.250 565.833 C 847.119 564.034, 825.524 563.400, 822.750 565.055 M 860 602.829 L 856.500 603.500 856.225 619.765 L 855.950 636.031 858.480 636.993 C 861.889 638.288, 886.824 637.391, 888.611 635.908 C 890.727 634.152, 890.612 605.753, 888.482 603.985 C 886.776 602.569, 865.798 601.717, 860 602.829 M 798.106 640.372 C 797.301 641.342, 797.045 649.630, 797.233 668.622 L 797.500 695.500 824 695.500 L 850.500 695.500 850.766 668.838 C 850.998 645.583, 850.829 641.972, 849.445 640.588 C 848.082 639.225, 844.419 639, 823.551 639 C 804.170 639, 799.014 639.278, 798.106 640.372 M 171.259 765.705 C 165.885 766.741, 166 765.248, 166 834.247 L 166 898.050 168.750 899.098 C 170.527 899.775, 174.330 899.855, 179.500 899.323 L 187.500 898.500 188 841.500 L 188.500 784.500 231 784.500 L 273.500 784.500 277.987 787.013 C 284.105 790.438, 286.993 795.874, 287.707 805.304 C 288.671 818.059, 284.606 827.012, 276.107 830.851 C 273.065 832.225, 267.379 832.532, 239.813 832.812 C 214.086 833.074, 206.889 833.429, 206.017 834.480 C 205.361 835.270, 205.029 838.813, 205.204 843.158 L 205.500 850.500 218.200 851 L 230.899 851.500 242.700 862.553 C 282.782 900.097, 282.172 899.583, 286.500 899.475 C 288.700 899.420, 295.675 899.282, 302 899.167 L 313.500 898.960 307.998 893.730 C 304.972 890.853, 293.178 880.175, 281.789 870 L 261.082 851.500 270.870 850.887 C 290.702 849.645, 301.555 843.196, 307.147 829.332 C 309.276 824.054, 309.500 821.980, 309.500 807.500 L 309.500 791.500 306.227 784.808 C 300.674 773.457, 292.498 768.288, 276.594 766.076 C 269.212 765.050, 176.354 764.722, 171.259 765.705 M 745.743 765.691 C 744.086 766.123, 744 769.915, 744.243 832.325 L 744.500 898.500 752.750 898.790 L 761 899.081 761 833.240 C 761 783.365, 760.709 767.109, 759.800 766.200 C 758.649 765.049, 749.476 764.716, 745.743 765.691 M 897.571 766.571 C 896.176 767.967, 896 775.271, 896 831.880 C 896 881.918, 896.274 895.992, 897.273 897.359 C 898.449 898.966, 901.172 899.077, 932.523 898.794 C 962.774 898.521, 967.048 898.282, 971.500 896.619 C 982.736 892.422, 990.068 884.447, 993.676 872.500 C 996.455 863.298, 996.147 839.810, 993.133 831.171 C 988.714 818.502, 982.007 811.710, 970.097 807.844 C 964.291 805.960, 960.533 805.648, 938.750 805.240 L 914 804.776 914 786.088 C 914 772.886, 913.648 767.048, 912.800 766.200 C 910.972 764.372, 899.491 764.652, 897.571 766.571 M 466.471 768.403 C 465.416 770.013, 464.928 772.583, 465.086 775.695 C 465.543 784.703, 460.872 783.909, 515.270 784.222 C 559.922 784.479, 563.777 784.638, 567.234 786.356 C 573.684 789.563, 576.915 797.412, 575.545 806.549 C 574.788 811.597, 570.329 817.536, 566.062 819.179 C 564.653 819.722, 547.075 823.514, 527 827.605 C 478.587 837.472, 475.431 838.442, 467.744 845.815 C 461.027 852.258, 459.669 857.659, 459.213 879.750 L 458.816 899 527.947 899 L 597.078 899 596.789 890.250 L 596.500 881.500 538.750 881.242 L 481 880.984 481 873.808 C 481 865.080, 483.542 859.064, 488.535 855.978 C 490.908 854.512, 503.883 851.461, 531.714 845.826 C 553.596 841.395, 573.877 836.884, 576.782 835.801 C 584.681 832.857, 590.036 828.281, 593.490 821.524 C 596.399 815.830, 596.500 815.180, 596.500 802.067 C 596.500 789.229, 596.349 788.193, 593.697 782.792 C 590.515 776.312, 585.841 772.167, 577.925 768.804 C 572.527 766.511, 572.244 766.499, 520.300 766.208 L 468.101 765.917 466.471 768.403 M 340.250 804.510 C 338.407 805.823, 338.003 807.053, 338.015 811.307 C 338.024 814.163, 338.457 817.175, 338.977 818 C 339.779 819.269, 345.198 819.577, 374.212 820 C 405.758 820.460, 408.724 820.652, 411.301 822.398 C 415.122 824.988, 417.120 829.236, 417.742 836.091 L 418.265 841.858 383.882 842.179 L 349.500 842.500 343.500 845.500 C 332.841 850.830, 328.032 860.731, 329.334 874.670 C 330.709 889.399, 337.855 896.831, 352.706 898.978 C 356.443 899.518, 376.455 899.969, 397.179 899.980 C 429.817 899.997, 435.063 899.794, 436.400 898.457 C 437.746 897.111, 437.895 892.432, 437.572 861.707 C 437.147 821.198, 436.904 819.775, 429.083 812.035 C 420.786 803.824, 419.648 803.626, 378.500 803.242 C 346.715 802.945, 342.237 803.094, 340.250 804.510 M 628.091 806.750 L 625.961 808.500 626.231 875.500 L 626.500 942.500 634.500 942.500 L 642.500 942.500 643 921 L 643.500 899.500 670 898.944 C 690.976 898.505, 697.362 898.053, 700.636 896.779 C 717.663 890.151, 724.995 876.646, 724.945 852 C 724.888 823.720, 714.113 809.468, 690.172 806.005 C 686.502 805.474, 671.512 805.031, 656.861 805.020 C 632.950 805.002, 630.003 805.179, 628.091 806.750 M 789.645 806.498 C 787.678 808.465, 787.361 817.961, 789.200 819.800 C 790.078 820.678, 798.193 821.001, 819.450 821.004 C 846.480 821.007, 848.722 821.143, 851.696 822.956 C 856.356 825.798, 857.973 828.906, 858.669 836.362 L 859.289 843 831.460 843 C 800.447 843, 795.170 843.763, 788.574 849.200 C 782.080 854.552, 780.500 858.917, 780.500 871.500 C 780.500 884.062, 782.082 888.449, 788.527 893.762 C 794.610 898.776, 796.722 899, 837.922 899 L 876.112 899 875.806 861.720 L 875.500 824.441 872.945 819.480 C 870.129 814.011, 863.974 808.738, 858.225 806.870 C 855.754 806.067, 843.857 805.523, 822.895 805.256 C 794.559 804.895, 791.119 805.023, 789.645 806.498 M 1035 805.692 C 1019.982 808.212, 1012.580 816.902, 1012.691 831.883 C 1012.782 844.150, 1016.694 850.901, 1026.043 854.923 C 1031.097 857.097, 1040.529 858.310, 1064.772 859.904 C 1081.405 860.997, 1084.733 862.285, 1086.760 868.409 C 1088.439 873.485, 1086.895 879.367, 1083.257 881.753 C 1080.903 883.297, 1076.808 883.558, 1048.047 884 L 1015.500 884.500 1015.500 891.500 L 1015.500 898.500 1052 898.500 C 1085.717 898.500, 1088.767 898.358, 1092 896.633 C 1100.556 892.069, 1104.122 886.001, 1104.787 874.873 C 1105.400 864.611, 1103.362 858.510, 1097.522 853.127 C 1091.279 847.373, 1085.922 846.141, 1060.242 844.559 C 1036.677 843.107, 1033.372 842.307, 1031.195 837.528 C 1028.483 831.577, 1030.394 824.990, 1035.540 822.548 C 1038.248 821.263, 1043.648 821, 1067.319 821 C 1083.004 821, 1096.548 820.727, 1097.418 820.393 C 1099.373 819.643, 1099.684 808.084, 1097.800 806.200 C 1096.914 805.314, 1088.857 805.036, 1067.050 805.136 C 1050.798 805.211, 1036.375 805.461, 1035 805.692 M 643 852.565 L 643 884.131 666.750 883.815 C 689.112 883.518, 690.745 883.369, 694.692 881.259 C 702.888 876.878, 705.890 870.442, 706.707 855.500 C 707.665 837.951, 703.634 828.066, 693.617 823.402 C 688.700 821.113, 687.609 821.019, 665.750 821.010 L 643 821 643 852.565 M 914 852.566 L 914 884.133 937.281 883.816 C 959.995 883.508, 960.684 883.438, 965.531 880.941 C 974.705 876.216, 977.517 869.276, 977.462 851.500 C 977.430 841.242, 977.098 838.780, 975.174 834.537 C 972.203 827.983, 970.473 826.174, 964.500 823.368 C 959.713 821.120, 958.529 821.019, 936.750 821.010 L 914 821 914 852.566 M 357.500 859.521 C 355.300 860.318, 353.399 860.977, 353.276 860.985 C 353.152 860.993, 352.365 862.328, 351.526 863.950 C 349.723 867.436, 349.538 873.891, 351.139 877.405 C 353.504 882.596, 356.195 883, 388.432 883 L 418.062 883 417.781 870.750 L 417.500 858.500 389.500 858.286 C 367.141 858.115, 360.694 858.364, 357.500 859.521 M 805.500 859.529 C 803.300 860.321, 801.399 860.977, 801.276 860.985 C 800.203 861.057, 798 867.717, 798 870.885 C 798 876.575, 799.474 879.709, 803.225 881.996 C 806.278 883.857, 808.278 883.993, 832.750 883.996 L 859 884 859 871 L 859 858 834.250 858.044 C 815.307 858.077, 808.562 858.426, 805.500 859.529" stroke="none" fill="#0A192F" fill-rule="evenodd"/>
</svg>